<mxfile host="app.diagrams.net" modified="2020-05-12T14:35:28.540Z" agent="5.0 (Windows NT 10.0; Win64; x64) AppleWebKit/537.36 (KHTML, like Gecko) Chrome/81.0.4044.138 Safari/537.36" etag="kCxrXaCgWAYeVQo5MlHf" version="13.1.0" type="github">
  <diagram id="C5RBs43oDa-KdzZeNtuy" name="Page-1">
    <mxGraphModel dx="1422" dy="762" grid="1" gridSize="10" guides="1" tooltips="1" connect="1" arrows="1" fold="1" page="1" pageScale="1" pageWidth="827" pageHeight="1169" math="0" shadow="0">
      <root>
        <mxCell id="WIyWlLk6GJQsqaUBKTNV-0" />
        <mxCell id="WIyWlLk6GJQsqaUBKTNV-1" parent="WIyWlLk6GJQsqaUBKTNV-0" />
        <mxCell id="rDE03bKfrXjJBld4goaQ-0" value="Patient" style="rounded=1;whiteSpace=wrap;html=1;" vertex="1" parent="WIyWlLk6GJQsqaUBKTNV-1">
          <mxGeometry x="342" y="150" width="160" height="80" as="geometry" />
        </mxCell>
        <mxCell id="rDE03bKfrXjJBld4goaQ-1" value="Admin" style="rounded=1;whiteSpace=wrap;html=1;" vertex="1" parent="WIyWlLk6GJQsqaUBKTNV-1">
          <mxGeometry x="346" y="900" width="120" height="50" as="geometry" />
        </mxCell>
        <mxCell id="rDE03bKfrXjJBld4goaQ-2" value="Ambulance" style="rounded=1;whiteSpace=wrap;html=1;" vertex="1" parent="WIyWlLk6GJQsqaUBKTNV-1">
          <mxGeometry x="346" y="1090" width="120" height="50" as="geometry" />
        </mxCell>
        <mxCell id="rDE03bKfrXjJBld4goaQ-3" value="Doctor" style="rounded=1;whiteSpace=wrap;html=1;" vertex="1" parent="WIyWlLk6GJQsqaUBKTNV-1">
          <mxGeometry x="120" y="920" width="120" height="50" as="geometry" />
        </mxCell>
        <mxCell id="rDE03bKfrXjJBld4goaQ-4" value="Medical Places" style="rounded=1;whiteSpace=wrap;html=1;" vertex="1" parent="WIyWlLk6GJQsqaUBKTNV-1">
          <mxGeometry x="620" y="760" width="120" height="50" as="geometry" />
        </mxCell>
        <mxCell id="rDE03bKfrXjJBld4goaQ-5" value="AmbulanceRequests" style="rounded=1;whiteSpace=wrap;html=1;" vertex="1" parent="WIyWlLk6GJQsqaUBKTNV-1">
          <mxGeometry x="170" y="420" width="120" height="60" as="geometry" />
        </mxCell>
        <mxCell id="rDE03bKfrXjJBld4goaQ-6" value="Visits" style="rounded=1;whiteSpace=wrap;html=1;" vertex="1" parent="WIyWlLk6GJQsqaUBKTNV-1">
          <mxGeometry x="566" y="420" width="120" height="60" as="geometry" />
        </mxCell>
        <mxCell id="rDE03bKfrXjJBld4goaQ-7" value="Medical Prescription" style="rounded=1;whiteSpace=wrap;html=1;" vertex="1" parent="WIyWlLk6GJQsqaUBKTNV-1">
          <mxGeometry x="180" y="700" width="120" height="60" as="geometry" />
        </mxCell>
        <mxCell id="rDE03bKfrXjJBld4goaQ-9" style="edgeStyle=orthogonalEdgeStyle;rounded=0;orthogonalLoop=1;jettySize=auto;html=1;exitX=0.5;exitY=1;exitDx=0;exitDy=0;entryX=0.25;entryY=0;entryDx=0;entryDy=0;" edge="1" parent="WIyWlLk6GJQsqaUBKTNV-1" source="rDE03bKfrXjJBld4goaQ-8" target="rDE03bKfrXjJBld4goaQ-1">
          <mxGeometry relative="1" as="geometry" />
        </mxCell>
        <mxCell id="rDE03bKfrXjJBld4goaQ-8" value="&lt;u&gt;ID&lt;/u&gt;" style="ellipse;whiteSpace=wrap;html=1;" vertex="1" parent="WIyWlLk6GJQsqaUBKTNV-1">
          <mxGeometry x="356" y="840" width="40" height="30" as="geometry" />
        </mxCell>
        <mxCell id="rDE03bKfrXjJBld4goaQ-11" style="edgeStyle=orthogonalEdgeStyle;rounded=0;orthogonalLoop=1;jettySize=auto;html=1;exitX=0.5;exitY=1;exitDx=0;exitDy=0;entryX=0.5;entryY=0;entryDx=0;entryDy=0;" edge="1" parent="WIyWlLk6GJQsqaUBKTNV-1" source="rDE03bKfrXjJBld4goaQ-10" target="rDE03bKfrXjJBld4goaQ-1">
          <mxGeometry relative="1" as="geometry" />
        </mxCell>
        <mxCell id="rDE03bKfrXjJBld4goaQ-10" value="First Name" style="ellipse;whiteSpace=wrap;html=1;" vertex="1" parent="WIyWlLk6GJQsqaUBKTNV-1">
          <mxGeometry x="371" y="800" width="70" height="30" as="geometry" />
        </mxCell>
        <mxCell id="rDE03bKfrXjJBld4goaQ-14" value="" style="edgeStyle=orthogonalEdgeStyle;rounded=0;orthogonalLoop=1;jettySize=auto;html=1;entryX=0.633;entryY=0;entryDx=0;entryDy=0;entryPerimeter=0;exitX=0;exitY=1;exitDx=0;exitDy=0;" edge="1" parent="WIyWlLk6GJQsqaUBKTNV-1" source="rDE03bKfrXjJBld4goaQ-12" target="rDE03bKfrXjJBld4goaQ-1">
          <mxGeometry relative="1" as="geometry">
            <mxPoint x="491" y="910" as="targetPoint" />
            <Array as="points">
              <mxPoint x="466" y="840" />
              <mxPoint x="422" y="840" />
            </Array>
          </mxGeometry>
        </mxCell>
        <mxCell id="rDE03bKfrXjJBld4goaQ-12" value="Last Name" style="ellipse;whiteSpace=wrap;html=1;" vertex="1" parent="WIyWlLk6GJQsqaUBKTNV-1">
          <mxGeometry x="456" y="800" width="70" height="30" as="geometry" />
        </mxCell>
        <mxCell id="rDE03bKfrXjJBld4goaQ-16" style="edgeStyle=orthogonalEdgeStyle;rounded=0;orthogonalLoop=1;jettySize=auto;html=1;entryX=0.142;entryY=0;entryDx=0;entryDy=0;entryPerimeter=0;" edge="1" parent="WIyWlLk6GJQsqaUBKTNV-1" source="rDE03bKfrXjJBld4goaQ-15" target="rDE03bKfrXjJBld4goaQ-1">
          <mxGeometry relative="1" as="geometry">
            <Array as="points">
              <mxPoint x="323" y="880" />
              <mxPoint x="363" y="880" />
            </Array>
          </mxGeometry>
        </mxCell>
        <mxCell id="rDE03bKfrXjJBld4goaQ-15" value="Email" style="ellipse;whiteSpace=wrap;html=1;" vertex="1" parent="WIyWlLk6GJQsqaUBKTNV-1">
          <mxGeometry x="300" y="830" width="46" height="20" as="geometry" />
        </mxCell>
        <mxCell id="rDE03bKfrXjJBld4goaQ-18" style="edgeStyle=orthogonalEdgeStyle;rounded=0;orthogonalLoop=1;jettySize=auto;html=1;entryX=0.75;entryY=0;entryDx=0;entryDy=0;" edge="1" parent="WIyWlLk6GJQsqaUBKTNV-1" source="rDE03bKfrXjJBld4goaQ-17" target="rDE03bKfrXjJBld4goaQ-1">
          <mxGeometry relative="1" as="geometry" />
        </mxCell>
        <mxCell id="rDE03bKfrXjJBld4goaQ-17" value="Password" style="ellipse;whiteSpace=wrap;html=1;" vertex="1" parent="WIyWlLk6GJQsqaUBKTNV-1">
          <mxGeometry x="476" y="840" width="60" height="30" as="geometry" />
        </mxCell>
        <mxCell id="rDE03bKfrXjJBld4goaQ-26" style="edgeStyle=orthogonalEdgeStyle;rounded=0;orthogonalLoop=1;jettySize=auto;html=1;exitX=0.5;exitY=1;exitDx=0;exitDy=0;entryX=0.167;entryY=0;entryDx=0;entryDy=0;entryPerimeter=0;" edge="1" parent="WIyWlLk6GJQsqaUBKTNV-1" source="rDE03bKfrXjJBld4goaQ-19" target="rDE03bKfrXjJBld4goaQ-2">
          <mxGeometry relative="1" as="geometry" />
        </mxCell>
        <mxCell id="rDE03bKfrXjJBld4goaQ-19" value="&lt;u&gt;ID&lt;/u&gt;" style="ellipse;whiteSpace=wrap;html=1;" vertex="1" parent="WIyWlLk6GJQsqaUBKTNV-1">
          <mxGeometry x="372" y="1030" width="40" height="30" as="geometry" />
        </mxCell>
        <mxCell id="rDE03bKfrXjJBld4goaQ-27" style="edgeStyle=orthogonalEdgeStyle;rounded=0;orthogonalLoop=1;jettySize=auto;html=1;entryX=0.25;entryY=0;entryDx=0;entryDy=0;" edge="1" parent="WIyWlLk6GJQsqaUBKTNV-1" source="rDE03bKfrXjJBld4goaQ-20" target="rDE03bKfrXjJBld4goaQ-2">
          <mxGeometry relative="1" as="geometry">
            <Array as="points">
              <mxPoint x="422" y="1070" />
              <mxPoint x="376" y="1070" />
            </Array>
          </mxGeometry>
        </mxCell>
        <mxCell id="rDE03bKfrXjJBld4goaQ-20" value="First Name" style="ellipse;whiteSpace=wrap;html=1;" vertex="1" parent="WIyWlLk6GJQsqaUBKTNV-1">
          <mxGeometry x="387" y="990" width="70" height="30" as="geometry" />
        </mxCell>
        <mxCell id="rDE03bKfrXjJBld4goaQ-28" style="edgeStyle=orthogonalEdgeStyle;rounded=0;orthogonalLoop=1;jettySize=auto;html=1;exitX=0;exitY=1;exitDx=0;exitDy=0;entryX=0.75;entryY=0;entryDx=0;entryDy=0;" edge="1" parent="WIyWlLk6GJQsqaUBKTNV-1" source="rDE03bKfrXjJBld4goaQ-21" target="rDE03bKfrXjJBld4goaQ-2">
          <mxGeometry relative="1" as="geometry">
            <Array as="points">
              <mxPoint x="482" y="1040" />
              <mxPoint x="436" y="1040" />
            </Array>
          </mxGeometry>
        </mxCell>
        <mxCell id="rDE03bKfrXjJBld4goaQ-21" value="Last Name" style="ellipse;whiteSpace=wrap;html=1;" vertex="1" parent="WIyWlLk6GJQsqaUBKTNV-1">
          <mxGeometry x="472" y="990" width="70" height="30" as="geometry" />
        </mxCell>
        <mxCell id="rDE03bKfrXjJBld4goaQ-25" style="edgeStyle=orthogonalEdgeStyle;rounded=0;orthogonalLoop=1;jettySize=auto;html=1;exitX=0.5;exitY=1;exitDx=0;exitDy=0;entryX=0;entryY=0.25;entryDx=0;entryDy=0;" edge="1" parent="WIyWlLk6GJQsqaUBKTNV-1" source="rDE03bKfrXjJBld4goaQ-22" target="rDE03bKfrXjJBld4goaQ-2">
          <mxGeometry relative="1" as="geometry" />
        </mxCell>
        <mxCell id="rDE03bKfrXjJBld4goaQ-22" value="Email" style="ellipse;whiteSpace=wrap;html=1;" vertex="1" parent="WIyWlLk6GJQsqaUBKTNV-1">
          <mxGeometry x="316" y="1020" width="46" height="20" as="geometry" />
        </mxCell>
        <mxCell id="rDE03bKfrXjJBld4goaQ-29" style="edgeStyle=orthogonalEdgeStyle;rounded=0;orthogonalLoop=1;jettySize=auto;html=1;exitX=0;exitY=1;exitDx=0;exitDy=0;entryX=1;entryY=0.25;entryDx=0;entryDy=0;" edge="1" parent="WIyWlLk6GJQsqaUBKTNV-1" source="rDE03bKfrXjJBld4goaQ-23" target="rDE03bKfrXjJBld4goaQ-2">
          <mxGeometry relative="1" as="geometry" />
        </mxCell>
        <mxCell id="rDE03bKfrXjJBld4goaQ-23" value="Password" style="ellipse;whiteSpace=wrap;html=1;" vertex="1" parent="WIyWlLk6GJQsqaUBKTNV-1">
          <mxGeometry x="492" y="1030" width="60" height="30" as="geometry" />
        </mxCell>
        <mxCell id="rDE03bKfrXjJBld4goaQ-30" style="edgeStyle=orthogonalEdgeStyle;rounded=0;orthogonalLoop=1;jettySize=auto;html=1;exitX=0.5;exitY=1;exitDx=0;exitDy=0;entryX=1;entryY=0.75;entryDx=0;entryDy=0;" edge="1" parent="WIyWlLk6GJQsqaUBKTNV-1" source="rDE03bKfrXjJBld4goaQ-24" target="rDE03bKfrXjJBld4goaQ-2">
          <mxGeometry relative="1" as="geometry" />
        </mxCell>
        <mxCell id="rDE03bKfrXjJBld4goaQ-24" value="Area" style="ellipse;whiteSpace=wrap;html=1;" vertex="1" parent="WIyWlLk6GJQsqaUBKTNV-1">
          <mxGeometry x="516" y="1080" width="50" height="30" as="geometry" />
        </mxCell>
        <mxCell id="rDE03bKfrXjJBld4goaQ-40" style="edgeStyle=orthogonalEdgeStyle;rounded=0;orthogonalLoop=1;jettySize=auto;html=1;exitX=0;exitY=0.5;exitDx=0;exitDy=0;entryX=1;entryY=1;entryDx=0;entryDy=0;" edge="1" parent="WIyWlLk6GJQsqaUBKTNV-1" source="rDE03bKfrXjJBld4goaQ-32" target="rDE03bKfrXjJBld4goaQ-4">
          <mxGeometry relative="1" as="geometry" />
        </mxCell>
        <mxCell id="rDE03bKfrXjJBld4goaQ-32" value="&lt;u&gt;ID&lt;/u&gt;" style="ellipse;whiteSpace=wrap;html=1;" vertex="1" parent="WIyWlLk6GJQsqaUBKTNV-1">
          <mxGeometry x="760" y="810" width="40" height="30" as="geometry" />
        </mxCell>
        <mxCell id="rDE03bKfrXjJBld4goaQ-39" style="edgeStyle=orthogonalEdgeStyle;rounded=0;orthogonalLoop=1;jettySize=auto;html=1;exitX=0;exitY=0.5;exitDx=0;exitDy=0;entryX=1;entryY=0.5;entryDx=0;entryDy=0;" edge="1" parent="WIyWlLk6GJQsqaUBKTNV-1" source="rDE03bKfrXjJBld4goaQ-33" target="rDE03bKfrXjJBld4goaQ-4">
          <mxGeometry relative="1" as="geometry" />
        </mxCell>
        <mxCell id="rDE03bKfrXjJBld4goaQ-33" value="Name" style="ellipse;whiteSpace=wrap;html=1;" vertex="1" parent="WIyWlLk6GJQsqaUBKTNV-1">
          <mxGeometry x="760" y="770" width="60" height="30" as="geometry" />
        </mxCell>
        <mxCell id="rDE03bKfrXjJBld4goaQ-37" style="edgeStyle=orthogonalEdgeStyle;rounded=0;orthogonalLoop=1;jettySize=auto;html=1;exitX=0;exitY=0.5;exitDx=0;exitDy=0;entryX=0.75;entryY=0;entryDx=0;entryDy=0;" edge="1" parent="WIyWlLk6GJQsqaUBKTNV-1" source="rDE03bKfrXjJBld4goaQ-34" target="rDE03bKfrXjJBld4goaQ-4">
          <mxGeometry relative="1" as="geometry" />
        </mxCell>
        <mxCell id="rDE03bKfrXjJBld4goaQ-34" value="Visit Fee" style="ellipse;whiteSpace=wrap;html=1;" vertex="1" parent="WIyWlLk6GJQsqaUBKTNV-1">
          <mxGeometry x="730" y="690" width="70" height="30" as="geometry" />
        </mxCell>
        <mxCell id="rDE03bKfrXjJBld4goaQ-41" style="edgeStyle=orthogonalEdgeStyle;rounded=0;orthogonalLoop=1;jettySize=auto;html=1;exitX=0;exitY=0;exitDx=0;exitDy=0;entryX=0.808;entryY=1.04;entryDx=0;entryDy=0;entryPerimeter=0;" edge="1" parent="WIyWlLk6GJQsqaUBKTNV-1" source="rDE03bKfrXjJBld4goaQ-35" target="rDE03bKfrXjJBld4goaQ-4">
          <mxGeometry relative="1" as="geometry" />
        </mxCell>
        <mxCell id="rDE03bKfrXjJBld4goaQ-35" value="Email" style="ellipse;whiteSpace=wrap;html=1;" vertex="1" parent="WIyWlLk6GJQsqaUBKTNV-1">
          <mxGeometry x="710" y="845" width="46" height="20" as="geometry" />
        </mxCell>
        <mxCell id="rDE03bKfrXjJBld4goaQ-38" style="edgeStyle=orthogonalEdgeStyle;rounded=0;orthogonalLoop=1;jettySize=auto;html=1;exitX=0;exitY=0.5;exitDx=0;exitDy=0;entryX=0.883;entryY=0.02;entryDx=0;entryDy=0;entryPerimeter=0;" edge="1" parent="WIyWlLk6GJQsqaUBKTNV-1" source="rDE03bKfrXjJBld4goaQ-36" target="rDE03bKfrXjJBld4goaQ-4">
          <mxGeometry relative="1" as="geometry" />
        </mxCell>
        <mxCell id="rDE03bKfrXjJBld4goaQ-36" value="Password" style="ellipse;whiteSpace=wrap;html=1;" vertex="1" parent="WIyWlLk6GJQsqaUBKTNV-1">
          <mxGeometry x="750" y="730" width="60" height="30" as="geometry" />
        </mxCell>
        <mxCell id="rDE03bKfrXjJBld4goaQ-43" style="edgeStyle=orthogonalEdgeStyle;rounded=0;orthogonalLoop=1;jettySize=auto;html=1;exitX=0.5;exitY=0;exitDx=0;exitDy=0;entryX=0.5;entryY=1;entryDx=0;entryDy=0;" edge="1" parent="WIyWlLk6GJQsqaUBKTNV-1" source="rDE03bKfrXjJBld4goaQ-42" target="rDE03bKfrXjJBld4goaQ-4">
          <mxGeometry relative="1" as="geometry" />
        </mxCell>
        <mxCell id="rDE03bKfrXjJBld4goaQ-42" value="Address" style="ellipse;whiteSpace=wrap;html=1;" vertex="1" parent="WIyWlLk6GJQsqaUBKTNV-1">
          <mxGeometry x="650" y="860" width="60" height="30" as="geometry" />
        </mxCell>
      </root>
    </mxGraphModel>
  </diagram>
</mxfile>
